<svg width="20" height="23" viewBox="0 0 20 23" fill="none" xmlns="http://www.w3.org/2000/svg">
<path fill-rule="evenodd" clip-rule="evenodd" d="M12 0.5C13.5977 0.5 14.9037 1.74892 14.9949 3.32373L15 3.5V4.5H17H19C19.5523 4.5 20 4.94772 20 5.5C20 6.01284 19.614 6.43551 19.1166 6.49327L19 6.5H18V19.5C18 21.0977 16.7511 22.4037 15.1763 22.4949L15 22.5H5C3.40232 22.5 2.09634 21.2511 2.00509 19.6763L2 19.5V6.5H1C0.447715 6.5 0 6.05228 0 5.5C0 4.98716 0.38604 4.56449 0.883379 4.50673L1 4.5H3H5V3.5C5 1.90232 6.24892 0.596339 7.82373 0.505093L8 0.5H12ZM4 6.5V19.5C4 20.0128 4.38604 20.4355 4.88338 20.4933L5 20.5H15C15.5128 20.5 15.9355 20.114 15.9933 19.6166L16 19.5V6.5H14H6H4ZM13 4.5H7V3.5L7.00673 3.38338C7.06449 2.88604 7.48716 2.5 8 2.5H12L12.1166 2.50673C12.614 2.56449 13 2.98716 13 3.5V4.5ZM8 9.5C8.51284 9.5 8.93551 9.88604 8.99327 10.3834L9 10.5V16.5C9 17.0523 8.55229 17.5 8 17.5C7.48716 17.5 7.06449 17.114 7.00673 16.6166L7 16.5V10.5C7 9.94771 7.44772 9.5 8 9.5ZM12.9933 10.3834C12.9355 9.88604 12.5128 9.5 12 9.5C11.4477 9.5 11 9.94771 11 10.5V16.5L11.0067 16.6166C11.0645 17.114 11.4872 17.5 12 17.5C12.5523 17.5 13 17.0523 13 16.5V10.5L12.9933 10.3834Z" fill="#F65160"/>
</svg>
