<svg width="22" height="22" viewBox="0 0 22 22" fill="none" xmlns="http://www.w3.org/2000/svg">
<path fill-rule="evenodd" clip-rule="evenodd" d="M14.8787 1.37868L6.29289 9.96447C6.10536 10.152 6 10.4064 6 10.6716V14.6716C6 15.2239 6.44772 15.6716 7 15.6716H11C11.2652 15.6716 11.5196 15.5662 11.7071 15.3787L20.2929 6.79289C21.4645 5.62132 21.4645 3.72183 20.2929 2.55025L19.1213 1.37868C17.9497 0.207107 16.0503 0.207107 14.8787 1.37868ZM18.8787 3.96447L18.9619 4.05867C19.2669 4.45096 19.2392 5.0182 18.8787 5.37868L10.584 13.6716H8V11.0856L16.2929 2.79289C16.6834 2.40237 17.3166 2.40237 17.7071 2.79289L18.8787 3.96447ZM10.0308 2.67157C10.0308 2.11929 9.5831 1.67157 9.03081 1.67157H5L4.78311 1.67619C2.12231 1.78975 0 3.98282 0 6.67157V16.6716L0.00461951 16.8885C0.118182 19.5493 2.31125 21.6716 5 21.6716H15L15.2169 21.667C17.8777 21.5534 20 19.3603 20 16.6716V11.7533L19.9933 11.6366C19.9355 11.1393 19.5128 10.7533 19 10.7533C18.4477 10.7533 18 11.201 18 11.7533V16.6716L17.9949 16.8478C17.9037 18.4227 16.5977 19.6716 15 19.6716H5L4.82373 19.6665C3.24892 19.5752 2 18.2693 2 16.6716V6.67157L2.00509 6.4953C2.09634 4.92049 3.40232 3.67157 5 3.67157H9.03081L9.14743 3.66485C9.64477 3.60708 10.0308 3.18441 10.0308 2.67157Z" fill="#0A1629"/>
</svg>
